<svg id="Capa_1" data-name="Capa 1" xmlns="http://www.w3.org/2000/svg" viewBox="0 0 243.15 86.73"><defs><style>.cls-1{fill:#e50914;}</style></defs><title>globalcid-logotipo</title><path d="M248,61a4.84,4.84,0,0,1-1.47,3.58,5,5,0,0,1-7.08,0,5,5,0,1,1,7.07-7.15A4.8,4.8,0,0,1,248,61Zm-2.38,2.71a4,4,0,0,0,0-5.42,3.68,3.68,0,0,0-5.25,0,4,4,0,0,0,0,5.43,3.65,3.65,0,0,0,5.25,0Zm-1.56-2.14,1.09,1.5h-1.27l-.95-1.23h-.44v1.23h-1.15V58.94h1.71a1.71,1.71,0,0,1,1.19.4,1.32,1.32,0,0,1,.46,1A1.3,1.3,0,0,1,244.06,61.56Zm-1.57-1.62v.9h.56a.49.49,0,0,0,.34-.12.41.41,0,0,0,.13-.32.44.44,0,0,0-.13-.34.49.49,0,0,0-.34-.12Z" transform="translate(-4.84 -5.75)"/><path class="cls-1" d="M56.23,22.28v0l-.69-2.1-3.12-9.8h0L50.92,5.75l-4.36,3A55.74,55.74,0,0,0,34.64,7.44c-.73,0-1.46,0-2.18,0A37.08,37.08,0,0,0,16.52,12,32.23,32.23,0,0,0,4.84,25.5h0L6,26.85H6l.32.38L5.51,34l4.24,4.34,3.37-3h0a35.79,35.79,0,0,1,43,0h0l7.18-8.54A46.67,46.67,0,0,0,56.23,22.28Z" transform="translate(-4.84 -5.75)"/><polygon class="cls-1" points="29.34 53.94 29.34 64.45 35.53 64.45 44 53.94 29.34 53.94"/><path d="M46.43,70.21V78.1A19.42,19.42,0,0,1,35,81.42c-9.8,0-16.75-7.43-16.75-17.54v-.16c0-9.4,7-17.22,15.88-17.22,6.39,0,10.19,2.06,14.45,5.61l7.66-9.24C50.46,38,44.45,35.28,34.5,35.28c-16.75,0-29,12.88-29,28.6V64c0,16.35,11.85,28.43,29.07,28.43A35.89,35.89,0,0,0,58.2,83.71V70.21Z" transform="translate(-4.84 -5.75)"/><path d="M66.13,55.8h7.93V86.27H66.13Z" transform="translate(-4.84 -5.75)"/><path d="M77.56,75.08V75c0-6.43,5.26-11.81,12.52-11.81s12.44,5.3,12.44,11.72V75c0,6.42-5.26,11.81-12.52,11.81S77.56,81.51,77.56,75.08Zm17.24,0V75A4.89,4.89,0,0,0,90,69.91a4.73,4.73,0,0,0-4.72,5V75a4.9,4.9,0,0,0,4.8,5.09A4.74,4.74,0,0,0,94.8,75.08Z" transform="translate(-4.84 -5.75)"/><path d="M113.79,83.51v2.76h-7.93V55.8h7.93V66.69a8.3,8.3,0,0,1,6.85-3.5c5.38,0,10,4.46,10,11.68V75c0,7.34-4.63,11.81-10,11.81A8.49,8.49,0,0,1,113.79,83.51ZM122.85,75v-.09a4.77,4.77,0,0,0-4.63-5.09c-2.55,0-4.59,2.13-4.59,5.09V75c0,3,2,5.13,4.59,5.13S122.85,78,122.85,75Z" transform="translate(-4.84 -5.75)"/><path d="M133,79.8v-.09c0-4.67,3.54-7.09,8.84-7.09a17.28,17.28,0,0,1,5.43.88v-.38c0-2.34-1.46-3.67-4.51-3.67a16,16,0,0,0-6.22,1.25l-1.63-5.59A22.58,22.58,0,0,1,144,63.35c4.05,0,6.81,1,8.6,2.76s2.42,4,2.42,7.18v13h-7.84V83.93a8.54,8.54,0,0,1-6.64,2.84C136.25,86.77,133,84.3,133,79.8Zm14.35-1.71V77a8.38,8.38,0,0,0-3.09-.58c-2.29,0-3.63,1.13-3.63,2.8v.08c0,1.54,1.17,2.46,2.8,2.46A3.63,3.63,0,0,0,147.31,78.09Z" transform="translate(-4.84 -5.75)"/><path d="M159.25,55.8h7.93V86.27h-7.93Z" transform="translate(-4.84 -5.75)"/><path d="M170.69,75.08V75a11.73,11.73,0,0,1,12.1-11.77c4.64,0,7.73,2,9.64,5.05l-5.38,4a4.84,4.84,0,0,0-4.21-2.38c-2.55,0-4.43,2.25-4.43,5V75c0,2.92,1.84,5.13,4.51,5.13,1.88,0,3.09-.87,4.34-2.34l5.3,3.84a11.21,11.21,0,0,1-10.06,5.18A11.65,11.65,0,0,1,170.69,75.08Z" transform="translate(-4.84 -5.75)"/><path d="M195.36,55.8h8.26v5.84h-8.26Zm.17,7.89h7.93V86.27h-7.93Z" transform="translate(-4.84 -5.75)"/><path d="M207.05,75.08V75c0-7.35,4.59-11.81,9.93-11.81a8.63,8.63,0,0,1,6.93,3.25V55.8h7.93V86.27h-7.93v-3A8.38,8.38,0,0,1,217,86.77C211.68,86.77,207.05,82.3,207.05,75.08ZM224,75v-.09c0-3-2-5.09-4.59-5.09a4.77,4.77,0,0,0-4.63,5.09V75c0,3,2.09,5.13,4.63,5.13S224,78,224,75Z" transform="translate(-4.84 -5.75)"/></svg>